<svg xmlns="http://www.w3.org/2000/svg" width="500" height="500" viewBox="0 0 500 500"><path  fill="#35393E" d="M24.12,6.166C21.633,6.079,18.659,6,16,6c-2.65,0-5.611,0.078-8.093,0.165 c-3.132,0.11-5.648,2.599-5.784,5.73C2.055,13.482,2,15.043,2,16c0,0.775,0.06,2.39,0.134,4.079 c0.136,3.128,2.661,5.622,5.789,5.729C10.773,25.905,14.051,26,16,26c2.077,0,5.319-0.093,8.116-0.19 c3.14-0.108,5.662-2.608,5.788-5.748C29.96,18.701,30,17.27,30,16c0-1.277-0.041-2.718-0.096-4.087 C29.777,8.78,27.253,6.276,24.12,6.166z M13.927,19.915c-0.155,0.079-0.34,0.072-0.488-0.019S13.2,19.643,13.2,19.469v-6.939 c0-0.174,0.09-0.336,0.239-0.426c0.148-0.091,0.333-0.098,0.488-0.019l6.8,3.469C20.894,15.64,21,15.812,21,16 c0,0.188-0.105,0.36-0.273,0.445L13.927,19.915z"></path></svg>